<svg width="16" height="16" viewBox="0 0 16 16" fill="none" xmlns="http://www.w3.org/2000/svg">
<path d="M7 7.5C7 7.36739 7.05268 7.24021 7.14645 7.14645C7.24021 7.05268 7.36739 7 7.5 7H10.5C10.6326 7 10.7598 7.05268 10.8536 7.14645C10.9473 7.24021 11 7.36739 11 7.5C11 7.63261 10.9473 7.75979 10.8536 7.85355C10.7598 7.94732 10.6326 8 10.5 8H7.5C7.36739 8 7.24021 7.94732 7.14645 7.85355C7.05268 7.75979 7 7.63261 7 7.5ZM7 10.5C7 10.3674 7.05268 10.2402 7.14645 10.1464C7.24021 10.0527 7.36739 10 7.5 10H10.5C10.6326 10 10.7598 10.0527 10.8536 10.1464C10.9473 10.2402 11 10.3674 11 10.5C11 10.6326 10.9473 10.7598 10.8536 10.8536C10.7598 10.9473 10.6326 11 10.5 11H7.5C7.36739 11 7.24021 10.9473 7.14645 10.8536C7.05268 10.7598 7 10.6326 7 10.5ZM5.5 8C5.63261 8 5.75979 7.94732 5.85355 7.85355C5.94732 7.75979 6 7.63261 6 7.5C6 7.36739 5.94732 7.24021 5.85355 7.14645C5.75979 7.05268 5.63261 7 5.5 7C5.36739 7 5.24021 7.05268 5.14645 7.14645C5.05268 7.24021 5 7.36739 5 7.5C5 7.63261 5.05268 7.75979 5.14645 7.85355C5.24021 7.94732 5.36739 8 5.5 8V8ZM5.5 11C5.63261 11 5.75979 10.9473 5.85355 10.8536C5.94732 10.7598 6 10.6326 6 10.5C6 10.3674 5.94732 10.2402 5.85355 10.1464C5.75979 10.0527 5.63261 10 5.5 10C5.36739 10 5.24021 10.0527 5.14645 10.1464C5.05268 10.2402 5 10.3674 5 10.5C5 10.6326 5.05268 10.7598 5.14645 10.8536C5.24021 10.9473 5.36739 11 5.5 11V11ZM5.085 2C5.18844 1.70742 5.38008 1.45413 5.63351 1.27503C5.88694 1.09593 6.18967 0.999838 6.5 1H9.5C9.81033 0.999838 10.1131 1.09593 10.3665 1.27503C10.6199 1.45413 10.8116 1.70742 10.915 2H11.5C11.8978 2 12.2794 2.15804 12.5607 2.43934C12.842 2.72064 13 3.10218 13 3.5V13.5C13 13.8978 12.842 14.2794 12.5607 14.5607C12.2794 14.842 11.8978 15 11.5 15H4.5C4.10218 15 3.72064 14.842 3.43934 14.5607C3.15804 14.2794 3 13.8978 3 13.5V3.5C3 3.10218 3.15804 2.72064 3.43934 2.43934C3.72064 2.15804 4.10218 2 4.5 2H5.085ZM6.5 2C6.36739 2 6.24021 2.05268 6.14645 2.14645C6.05268 2.24022 6 2.36739 6 2.5C6 2.63261 6.05268 2.75979 6.14645 2.85355C6.24021 2.94732 6.36739 3 6.5 3H9.5C9.63261 3 9.75979 2.94732 9.85355 2.85355C9.94732 2.75979 10 2.63261 10 2.5C10 2.36739 9.94732 2.24022 9.85355 2.14645C9.75979 2.05268 9.63261 2 9.5 2H6.5ZM5.085 3H4.5C4.36739 3 4.24021 3.05268 4.14645 3.14645C4.05268 3.24022 4 3.36739 4 3.5V13.5C4 13.6326 4.05268 13.7598 4.14645 13.8536C4.24021 13.9473 4.36739 14 4.5 14H11.5C11.6326 14 11.7598 13.9473 11.8536 13.8536C11.9473 13.7598 12 13.6326 12 13.5V3.5C12 3.36739 11.9473 3.24022 11.8536 3.14645C11.7598 3.05268 11.6326 3 11.5 3H10.915C10.8116 3.29258 10.6199 3.54587 10.3665 3.72497C10.1131 3.90407 9.81033 4.00016 9.5 4H6.5C6.18967 4.00016 5.88694 3.90407 5.63351 3.72497C5.38008 3.54587 5.18844 3.29258 5.085 3V3Z" fill="black"/>
</svg>
