<svg width="36" height="36" viewBox="0 0 36 36" fill="none" xmlns="http://www.w3.org/2000/svg">
<path d="M29.6175 7.5C30.5126 7.5 31.3711 7.85558 32.004 8.48851C32.6369 9.12145 32.9925 9.97989 32.9925 10.875V25.1325C32.9925 26.0276 32.6369 26.886 32.004 27.519C31.3711 28.1519 30.5126 28.5075 29.6175 28.5075H6.375C5.93179 28.5075 5.49292 28.4202 5.08344 28.2506C4.67397 28.081 4.30191 27.8324 3.98851 27.519C3.67512 27.2056 3.42652 26.8335 3.25691 26.4241C3.0873 26.0146 3 25.5757 3 25.1325V10.875C3 9.97989 3.35558 9.12145 3.98851 8.48851C4.62145 7.85558 5.47989 7.5 6.375 7.5H29.6175V7.5ZM29.6175 9.75H6.375C6.07663 9.75 5.79048 9.86853 5.5795 10.0795C5.36853 10.2905 5.25 10.5766 5.25 10.875V25.1325C5.25 25.7535 5.754 26.2575 6.375 26.2575H29.6175C29.9159 26.2575 30.202 26.139 30.413 25.928C30.624 25.717 30.7425 25.4309 30.7425 25.1325V10.875C30.7425 10.5766 30.624 10.2905 30.413 10.0795C30.202 9.86853 29.9159 9.75 29.6175 9.75V9.75ZM10.125 21.75H25.875C26.16 21.7501 26.4344 21.8584 26.6427 22.053C26.851 22.2476 26.9776 22.5139 26.997 22.7983C27.0165 23.0827 26.9272 23.3638 26.7474 23.5849C26.5675 23.8061 26.3104 23.9506 26.028 23.9895L25.875 24H10.125C9.83996 23.9999 9.56559 23.8916 9.35731 23.697C9.14904 23.5024 9.02239 23.2361 9.00296 22.9517C8.98353 22.6673 9.07277 22.3862 9.25265 22.1651C9.43252 21.9439 9.68962 21.7994 9.972 21.7605L10.125 21.75H25.875H10.125V21.75ZM24.75 16.5C25.1478 16.5 25.5294 16.658 25.8107 16.9393C26.092 17.2206 26.25 17.6022 26.25 18C26.25 18.3978 26.092 18.7794 25.8107 19.0607C25.5294 19.342 25.1478 19.5 24.75 19.5C24.3522 19.5 23.9706 19.342 23.6893 19.0607C23.408 18.7794 23.25 18.3978 23.25 18C23.25 17.6022 23.408 17.2206 23.6893 16.9393C23.9706 16.658 24.3522 16.5 24.75 16.5ZM15.7575 16.5C16.1553 16.5 16.5369 16.658 16.8182 16.9393C17.0995 17.2206 17.2575 17.6022 17.2575 18C17.2575 18.3978 17.0995 18.7794 16.8182 19.0607C16.5369 19.342 16.1553 19.5 15.7575 19.5C15.3597 19.5 14.9781 19.342 14.6968 19.0607C14.4155 18.7794 14.2575 18.3978 14.2575 18C14.2575 17.6022 14.4155 17.2206 14.6968 16.9393C14.9781 16.658 15.3597 16.5 15.7575 16.5V16.5ZM11.2575 16.5C11.6553 16.5 12.0369 16.658 12.3182 16.9393C12.5995 17.2206 12.7575 17.6022 12.7575 18C12.7575 18.3978 12.5995 18.7794 12.3182 19.0607C12.0369 19.342 11.6553 19.5 11.2575 19.5C10.8597 19.5 10.4781 19.342 10.1968 19.0607C9.91554 18.7794 9.7575 18.3978 9.7575 18C9.7575 17.6022 9.91554 17.2206 10.1968 16.9393C10.4781 16.658 10.8597 16.5 11.2575 16.5ZM20.2575 16.5C20.6553 16.5 21.0369 16.658 21.3182 16.9393C21.5995 17.2206 21.7575 17.6022 21.7575 18C21.7575 18.3978 21.5995 18.7794 21.3182 19.0607C21.0369 19.342 20.6553 19.5 20.2575 19.5C19.8597 19.5 19.4781 19.342 19.1968 19.0607C18.9155 18.7794 18.7575 18.3978 18.7575 18C18.7575 17.6022 18.9155 17.2206 19.1968 16.9393C19.4781 16.658 19.8597 16.5 20.2575 16.5V16.5ZM9 12C9.39782 12 9.77936 12.158 10.0607 12.4393C10.342 12.7206 10.5 13.1022 10.5 13.5C10.5 13.8978 10.342 14.2794 10.0607 14.5607C9.77936 14.842 9.39782 15 9 15C8.60218 15 8.22064 14.842 7.93934 14.5607C7.65804 14.2794 7.5 13.8978 7.5 13.5C7.5 13.1022 7.65804 12.7206 7.93934 12.4393C8.22064 12.158 8.60218 12 9 12ZM13.4925 12C13.8903 12 14.2719 12.158 14.5532 12.4393C14.8345 12.7206 14.9925 13.1022 14.9925 13.5C14.9925 13.8978 14.8345 14.2794 14.5532 14.5607C14.2719 14.842 13.8903 15 13.4925 15C13.0947 15 12.7131 14.842 12.4318 14.5607C12.1505 14.2794 11.9925 13.8978 11.9925 13.5C11.9925 13.1022 12.1505 12.7206 12.4318 12.4393C12.7131 12.158 13.0947 12 13.4925 12V12ZM17.9925 12C18.3903 12 18.7719 12.158 19.0532 12.4393C19.3345 12.7206 19.4925 13.1022 19.4925 13.5C19.4925 13.8978 19.3345 14.2794 19.0532 14.5607C18.7719 14.842 18.3903 15 17.9925 15C17.5947 15 17.2131 14.842 16.9318 14.5607C16.6505 14.2794 16.4925 13.8978 16.4925 13.5C16.4925 13.1022 16.6505 12.7206 16.9318 12.4393C17.2131 12.158 17.5947 12 17.9925 12V12ZM22.4925 12C22.8903 12 23.2719 12.158 23.5532 12.4393C23.8345 12.7206 23.9925 13.1022 23.9925 13.5C23.9925 13.8978 23.8345 14.2794 23.5532 14.5607C23.2719 14.842 22.8903 15 22.4925 15C22.0947 15 21.7131 14.842 21.4318 14.5607C21.1505 14.2794 20.9925 13.8978 20.9925 13.5C20.9925 13.1022 21.1505 12.7206 21.4318 12.4393C21.7131 12.158 22.0947 12 22.4925 12V12ZM26.9925 12C27.3903 12 27.7719 12.158 28.0532 12.4393C28.3345 12.7206 28.4925 13.1022 28.4925 13.5C28.4925 13.8978 28.3345 14.2794 28.0532 14.5607C27.7719 14.842 27.3903 15 26.9925 15C26.5947 15 26.2131 14.842 25.9318 14.5607C25.6505 14.2794 25.4925 13.8978 25.4925 13.5C25.4925 13.1022 25.6505 12.7206 25.9318 12.4393C26.2131 12.158 26.5947 12 26.9925 12Z" fill="white"/>
</svg>
