<svg width="24" height="24" viewBox="0 0 24 24" fill="none" xmlns="http://www.w3.org/2000/svg">
<path d="M10.0035 2C8.7521 2.00067 7.51828 2.29492 6.40124 2.85909C5.28419 3.42326 4.31508 4.24163 3.57179 5.24841C2.8285 6.25519 2.33177 7.42231 2.12153 8.65595C1.91128 9.8896 1.99337 11.1554 2.36122 12.3515C2.72906 13.5477 3.3724 14.6408 4.23951 15.5432C5.10662 16.4455 6.17333 17.1318 7.35389 17.547C8.53446 17.9621 9.79595 18.0945 11.037 17.9335C12.278 17.7725 13.464 17.3226 14.4995 16.62L19.4435 21.56C19.5809 21.7074 19.7465 21.8256 19.9305 21.9076C20.1145 21.9895 20.3131 22.0336 20.5145 22.0372C20.7159 22.0407 20.916 22.0037 21.1027 21.9282C21.2895 21.8528 21.4592 21.7405 21.6016 21.5981C21.744 21.4556 21.8563 21.286 21.9318 21.0992C22.0072 20.9124 22.0443 20.7124 22.0407 20.511C22.0372 20.3096 21.9931 20.1109 21.9111 19.9269C21.8291 19.7429 21.7109 19.5773 21.5635 19.44L16.6235 14.496C17.4408 13.2932 17.9148 11.8903 17.9944 10.4383C18.0741 8.98624 17.7565 7.53995 17.0757 6.25492C16.3949 4.96989 15.3768 3.89473 14.1307 3.14503C12.8846 2.39534 11.4578 1.99947 10.0035 2V2ZM5.00354 10C5.00354 8.67392 5.53032 7.40215 6.468 6.46447C7.40569 5.52678 8.67745 5 10.0035 5C11.3296 5 12.6014 5.52678 13.5391 6.46447C14.4768 7.40215 15.0035 8.67392 15.0035 10C15.0035 11.3261 14.4768 12.5979 13.5391 13.5355C12.6014 14.4732 11.3296 15 10.0035 15C8.67745 15 7.40569 14.4732 6.468 13.5355C5.53032 12.5979 5.00354 11.3261 5.00354 10Z" fill="#004DFF"/>
</svg>
