<svg width="24" height="24" viewBox="0 0 24 24" fill="none" xmlns="http://www.w3.org/2000/svg">
<path d="M7.29343 8.29343L11.2884 4.29343C11.4605 4.1211 11.6895 4.01749 11.9326 4.00202C12.1756 3.98655 12.4159 4.0603 12.6084 4.20942L12.7024 4.29242L16.7084 8.29242C16.8918 8.47149 16.9994 8.71413 17.0091 8.97025C17.0187 9.22637 16.9297 9.47643 16.7603 9.66878C16.5909 9.86114 16.3541 9.98111 16.0988 10.0039C15.8435 10.0268 15.5892 9.95068 15.3884 9.79143L15.2944 9.70843L13.0014 7.41742V19.0014C13.0014 19.2464 12.9115 19.4828 12.7487 19.6658C12.586 19.8488 12.3617 19.9658 12.1184 19.9944L12.0004 20.0004C11.7553 20.0004 11.5188 19.9103 11.3358 19.7473C11.1527 19.5844 11.0359 19.3599 11.0074 19.1164L11.0004 19.0014V7.41042L8.70742 9.70742C8.53536 9.87975 8.30632 9.98336 8.0633 9.99883C7.82027 10.0143 7.57995 9.94055 7.38742 9.79143L7.29343 9.70742C7.1211 9.53536 7.01749 9.30632 7.00202 9.0633C6.98655 8.82027 7.0603 8.57995 7.20942 8.38742L7.29343 8.29343L11.2884 4.29343L7.29343 8.29343V8.29343Z" fill="black"/>
</svg>
